<svg width="446" height="1574" viewBox="0 0 446 1574" fill="none" xmlns="http://www.w3.org/2000/svg">
<line x1="81.916" y1="1527.46" x2="81.916" y2="1342.81" stroke="black" stroke-width="10"/>
<rect x="100.057" y="1366.45" width="11.6406" height="11.4072" fill="black" stroke="black"/>
<rect x="87.416" y="1354.05" width="11.6406" height="11.4072" fill="black" stroke="black"/>
<rect x="112.697" y="1378.86" width="11.5654" height="11.4531" fill="black" stroke="black"/>
<rect x="125.191" y="1391.31" width="11.5654" height="11.4531" fill="black" stroke="black"/>
<rect x="137.757" y="1403.77" width="11.5654" height="11.4531" fill="black" stroke="black"/>
<rect x="150.322" y="1416.22" width="11.5654" height="11.4531" fill="black" stroke="black"/>
<rect x="87.416" y="1507.79" width="11.5654" height="11.4531" fill="black" stroke="black"/>
<rect x="162.888" y="1428.67" width="11.5654" height="11.4531" fill="black" stroke="black"/>
<rect x="106.191" y="1483.87" width="11.5654" height="11.4531" fill="black" stroke="black"/>
<rect x="175.453" y="1441.13" width="11.5654" height="11.4531" fill="black" stroke="black"/>
<rect x="96.8027" y="1496.33" width="11.5654" height="11.4531" fill="black" stroke="black"/>
<rect x="188.019" y="1453.58" width="11.5654" height="11.4531" fill="black" stroke="black"/>
<rect x="152.314" y="1462.93" width="55.4229" height="11.3906" fill="black" stroke="black"/>
<rect x="152.314" y="1475.32" width="11.5713" height="21.8354" fill="black" stroke="black"/>
<rect x="118.757" y="1473.48" width="11.5713" height="23.6753" fill="black" stroke="black"/>
<rect x="162.861" y="1496.33" width="11.5137" height="21.9194" fill="black" stroke="black"/>
<rect x="131.328" y="1496.33" width="11.5137" height="21.9194" fill="black" stroke="black"/>
<rect x="173.358" y="1517.27" width="13.4824" height="24.1108" fill="black" stroke="black"/>
<rect x="141.805" y="1517.27" width="13.4824" height="24.1108" fill="black" stroke="black"/>
<rect x="185.872" y="1540.19" width="11.5137" height="21.9194" fill="black" stroke="black"/>
<rect x="152.462" y="1540.19" width="11.5137" height="21.9194" fill="black" stroke="black"/>
<rect x="162.861" y="1572.69" width="11.5137" height="23.98" transform="rotate(-90 162.861 1572.69)" fill="black" stroke="black"/>
<rect x="34.8906" y="1261.38" width="4.85951" height="58.6472" transform="rotate(-13.5705 34.8906 1261.38)" fill="#D9D9D9"/>
<rect x="59.2188" y="1342.75" width="4.85951" height="58.6472" transform="rotate(-13.5705 59.2188 1342.75)" fill="#D9D9D9"/>
<rect x="108.161" y="1280.46" width="4.85951" height="58.6472" transform="rotate(46.4295 108.161 1280.46)" fill="#D9D9D9"/>
<rect x="43.5762" y="1335.61" width="4.85951" height="58.6472" transform="rotate(46.4295 43.5762 1335.61)" fill="#D9D9D9"/>
<line x1="173.818" y1="1273" x2="173.818" y2="1088.35" stroke="black" stroke-width="10"/>
<rect x="191.959" y="1111.99" width="11.6406" height="11.4072" fill="black" stroke="black"/>
<rect x="179.318" y="1099.59" width="11.6406" height="11.4072" fill="black" stroke="black"/>
<rect x="204.6" y="1124.4" width="11.5654" height="11.4531" fill="black" stroke="black"/>
<rect x="217.094" y="1136.85" width="11.5654" height="11.4531" fill="black" stroke="black"/>
<rect x="229.659" y="1149.31" width="11.5654" height="11.4531" fill="black" stroke="black"/>
<rect x="242.225" y="1161.76" width="11.5654" height="11.4531" fill="black" stroke="black"/>
<rect x="179.318" y="1253.33" width="11.5654" height="11.4531" fill="black" stroke="black"/>
<rect x="254.79" y="1174.21" width="11.5654" height="11.4531" fill="black" stroke="black"/>
<rect x="198.094" y="1229.41" width="11.5654" height="11.4531" fill="black" stroke="black"/>
<rect x="267.355" y="1186.67" width="11.5654" height="11.4531" fill="black" stroke="black"/>
<rect x="188.705" y="1241.87" width="11.5654" height="11.4531" fill="black" stroke="black"/>
<rect x="279.921" y="1199.12" width="11.5654" height="11.4531" fill="black" stroke="black"/>
<rect x="244.217" y="1208.46" width="55.4229" height="11.3906" fill="black" stroke="black"/>
<rect x="244.217" y="1220.86" width="11.5713" height="21.8354" fill="black" stroke="black"/>
<rect x="210.659" y="1219.02" width="11.5713" height="23.6753" fill="black" stroke="black"/>
<rect x="254.764" y="1241.87" width="11.5137" height="21.9194" fill="black" stroke="black"/>
<rect x="223.23" y="1241.87" width="11.5137" height="21.9194" fill="black" stroke="black"/>
<rect x="265.261" y="1262.81" width="13.4824" height="24.1108" fill="black" stroke="black"/>
<rect x="233.707" y="1262.81" width="13.4824" height="24.1108" fill="black" stroke="black"/>
<rect x="277.774" y="1285.73" width="11.5137" height="21.9194" fill="black" stroke="black"/>
<rect x="244.364" y="1285.73" width="11.5137" height="21.9194" fill="black" stroke="black"/>
<rect x="254.764" y="1318.23" width="11.5137" height="23.98" transform="rotate(-90 254.764 1318.23)" fill="black" stroke="black"/>
<rect x="126.792" y="1006.92" width="4.85951" height="58.6472" transform="rotate(-13.5705 126.792 1006.92)" fill="#D9D9D9"/>
<rect x="151.12" y="1088.29" width="4.85951" height="58.6472" transform="rotate(-13.5705 151.12 1088.29)" fill="#D9D9D9"/>
<rect x="200.062" y="1026" width="4.85951" height="58.6472" transform="rotate(46.4295 200.062 1026)" fill="#D9D9D9"/>
<rect x="135.478" y="1081.15" width="4.85951" height="58.6472" transform="rotate(46.4295 135.478 1081.15)" fill="#D9D9D9"/>
<line x1="286.948" y1="1051.13" x2="286.948" y2="866.481" stroke="black" stroke-width="10"/>
<rect x="305.089" y="890.125" width="11.6406" height="11.4072" fill="black" stroke="black"/>
<rect x="292.448" y="877.719" width="11.6406" height="11.4072" fill="black" stroke="black"/>
<rect x="317.729" y="902.533" width="11.5654" height="11.4531" fill="black" stroke="black"/>
<rect x="330.224" y="914.986" width="11.5654" height="11.4531" fill="black" stroke="black"/>
<rect x="342.789" y="927.439" width="11.5654" height="11.4531" fill="black" stroke="black"/>
<rect x="355.354" y="939.893" width="11.5654" height="11.4531" fill="black" stroke="black"/>
<rect x="292.448" y="1031.46" width="11.5654" height="11.4531" fill="black" stroke="black"/>
<rect x="367.92" y="952.346" width="11.5654" height="11.4531" fill="black" stroke="black"/>
<rect x="311.224" y="1007.54" width="11.5654" height="11.4531" fill="black" stroke="black"/>
<rect x="380.485" y="964.799" width="11.5654" height="11.4531" fill="black" stroke="black"/>
<rect x="301.835" y="1020" width="11.5654" height="11.4531" fill="black" stroke="black"/>
<rect x="393.051" y="977.252" width="11.5654" height="11.4531" fill="black" stroke="black"/>
<rect x="357.347" y="986.598" width="55.4229" height="11.3906" fill="black" stroke="black"/>
<rect x="357.347" y="998.988" width="11.5713" height="21.8354" fill="black" stroke="black"/>
<rect x="323.789" y="997.148" width="11.5713" height="23.6753" fill="black" stroke="black"/>
<rect x="367.894" y="1020" width="11.5137" height="21.9194" fill="black" stroke="black"/>
<rect x="336.36" y="1020" width="11.5137" height="21.9194" fill="black" stroke="black"/>
<rect x="378.391" y="1040.95" width="13.4824" height="24.1108" fill="black" stroke="black"/>
<rect x="346.837" y="1040.95" width="13.4824" height="24.1108" fill="black" stroke="black"/>
<rect x="390.904" y="1063.87" width="11.5137" height="21.9194" fill="black" stroke="black"/>
<rect x="357.494" y="1063.87" width="11.5137" height="21.9194" fill="black" stroke="black"/>
<rect x="367.894" y="1096.36" width="11.5137" height="23.98" transform="rotate(-90 367.894 1096.36)" fill="black" stroke="black"/>
<rect x="239.922" y="785.056" width="4.85951" height="58.6472" transform="rotate(-13.5705 239.922 785.056)" fill="#D9D9D9"/>
<rect x="264.25" y="866.426" width="4.85951" height="58.6472" transform="rotate(-13.5705 264.25 866.426)" fill="#D9D9D9"/>
<rect x="313.192" y="804.128" width="4.85951" height="58.6472" transform="rotate(46.4295 313.192 804.128)" fill="#D9D9D9"/>
<rect x="248.607" y="859.28" width="4.85951" height="58.6472" transform="rotate(46.4295 248.607 859.28)" fill="#D9D9D9"/>
<line x1="348.541" y1="772.563" x2="348.541" y2="587.915" stroke="black" stroke-width="10"/>
<rect x="366.682" y="611.559" width="11.6406" height="11.4072" fill="black" stroke="black"/>
<rect x="354.041" y="599.152" width="11.6406" height="11.4072" fill="black" stroke="black"/>
<rect x="379.322" y="623.967" width="11.5654" height="11.4531" fill="black" stroke="black"/>
<rect x="391.816" y="636.42" width="11.5654" height="11.4531" fill="black" stroke="black"/>
<rect x="404.382" y="648.873" width="11.5654" height="11.4531" fill="black" stroke="black"/>
<rect x="416.947" y="661.326" width="11.5654" height="11.4531" fill="black" stroke="black"/>
<rect x="354.041" y="752.892" width="11.5654" height="11.4531" fill="black" stroke="black"/>
<rect x="429.513" y="673.779" width="11.5654" height="11.4531" fill="black" stroke="black"/>
<rect x="372.816" y="728.979" width="11.5654" height="11.4531" fill="black" stroke="black"/>
<rect x="442.078" y="686.232" width="11.5654" height="11.4531" fill="black" stroke="black"/>
<rect x="363.428" y="741.432" width="11.5654" height="11.4531" fill="black" stroke="black"/>
<rect x="418.939" y="708.031" width="55.4229" height="11.3906" fill="black" stroke="black"/>
<rect x="418.939" y="720.422" width="11.5713" height="21.8354" fill="black" stroke="black"/>
<rect x="385.382" y="718.582" width="11.5713" height="23.6753" fill="black" stroke="black"/>
<rect x="429.486" y="741.432" width="11.5137" height="21.9194" fill="black" stroke="black"/>
<rect x="397.953" y="741.432" width="11.5137" height="21.9194" fill="black" stroke="black"/>
<rect x="439.983" y="762.379" width="13.4824" height="24.1108" fill="black" stroke="black"/>
<rect x="408.43" y="762.379" width="13.4824" height="24.1108" fill="black" stroke="black"/>
<rect x="419.087" y="785.299" width="11.5137" height="21.9194" fill="black" stroke="black"/>
<rect x="429.486" y="817.792" width="11.5137" height="23.98" transform="rotate(-90 429.486 817.792)" fill="black" stroke="black"/>
<rect x="301.515" y="506.489" width="4.85951" height="58.6472" transform="rotate(-13.5705 301.515 506.489)" fill="#D9D9D9"/>
<rect x="325.843" y="587.859" width="4.85951" height="58.6472" transform="rotate(-13.5705 325.843 587.859)" fill="#D9D9D9"/>
<rect x="374.785" y="525.562" width="4.85951" height="58.6472" transform="rotate(46.4295 374.785 525.562)" fill="#D9D9D9"/>
<rect x="310.2" y="580.714" width="4.85951" height="58.6472" transform="rotate(46.4295 310.2 580.714)" fill="#D9D9D9"/>
<line x1="346.981" y1="492.578" x2="346.981" y2="307.93" stroke="black" stroke-width="10"/>
<rect x="365.122" y="331.574" width="11.6406" height="11.4072" fill="black" stroke="black"/>
<rect x="352.481" y="319.166" width="11.6406" height="11.4072" fill="black" stroke="black"/>
<rect x="377.763" y="343.98" width="11.5654" height="11.4531" fill="black" stroke="black"/>
<rect x="390.257" y="356.434" width="11.5654" height="11.4531" fill="black" stroke="black"/>
<rect x="402.822" y="368.887" width="11.5654" height="11.4531" fill="black" stroke="black"/>
<rect x="415.388" y="381.34" width="11.5654" height="11.4531" fill="black" stroke="black"/>
<rect x="352.481" y="472.906" width="11.5654" height="11.4531" fill="black" stroke="black"/>
<rect x="427.953" y="393.793" width="11.5654" height="11.4531" fill="black" stroke="black"/>
<rect x="371.257" y="448.994" width="11.5654" height="11.4531" fill="black" stroke="black"/>
<rect x="440.519" y="406.246" width="11.5654" height="11.4531" fill="black" stroke="black"/>
<rect x="361.868" y="461.447" width="11.5654" height="11.4531" fill="black" stroke="black"/>
<rect x="417.38" y="428.045" width="55.4229" height="11.3906" fill="black" stroke="black"/>
<rect x="417.38" y="440.436" width="11.5713" height="21.8354" fill="black" stroke="black"/>
<rect x="383.822" y="438.596" width="11.5713" height="23.6753" fill="black" stroke="black"/>
<rect x="427.927" y="461.447" width="11.5137" height="21.9194" fill="black" stroke="black"/>
<rect x="396.394" y="461.447" width="11.5137" height="21.9194" fill="black" stroke="black"/>
<rect x="438.424" y="482.394" width="13.4824" height="24.1108" fill="black" stroke="black"/>
<rect x="406.87" y="482.394" width="13.4824" height="24.1108" fill="black" stroke="black"/>
<rect x="417.527" y="505.312" width="11.5137" height="21.9194" fill="black" stroke="black"/>
<rect x="427.927" y="537.807" width="11.5137" height="23.98" transform="rotate(-90 427.927 537.807)" fill="black" stroke="black"/>
<rect x="299.955" y="226.504" width="4.85951" height="58.6472" transform="rotate(-13.5705 299.955 226.504)" fill="#D9D9D9"/>
<rect x="324.283" y="307.874" width="4.85951" height="58.6472" transform="rotate(-13.5705 324.283 307.874)" fill="#D9D9D9"/>
<rect x="373.226" y="245.576" width="4.85951" height="58.6472" transform="rotate(46.4295 373.226 245.576)" fill="#D9D9D9"/>
<rect x="308.641" y="300.729" width="4.85951" height="58.6472" transform="rotate(46.4295 308.641 300.729)" fill="#D9D9D9"/>
<line x1="84.335" y1="740.184" x2="84.335" y2="555.535" stroke="black" stroke-width="10"/>
<rect x="102.476" y="579.18" width="11.6406" height="11.4072" fill="black" stroke="black"/>
<rect x="89.835" y="566.771" width="11.6406" height="11.4072" fill="black" stroke="black"/>
<rect x="115.116" y="591.586" width="11.5654" height="11.4531" fill="black" stroke="black"/>
<rect x="127.61" y="604.039" width="11.5654" height="11.4531" fill="black" stroke="black"/>
<rect x="140.176" y="616.492" width="11.5654" height="11.4531" fill="black" stroke="black"/>
<rect x="152.741" y="628.945" width="11.5654" height="11.4531" fill="black" stroke="black"/>
<rect x="89.835" y="720.512" width="11.5654" height="11.4531" fill="black" stroke="black"/>
<rect x="165.307" y="641.398" width="11.5654" height="11.4531" fill="black" stroke="black"/>
<rect x="108.61" y="696.6" width="11.5654" height="11.4531" fill="black" stroke="black"/>
<rect x="177.872" y="653.852" width="11.5654" height="11.4531" fill="black" stroke="black"/>
<rect x="99.2217" y="709.053" width="11.5654" height="11.4531" fill="black" stroke="black"/>
<rect x="190.438" y="666.305" width="11.5654" height="11.4531" fill="black" stroke="black"/>
<rect x="154.733" y="675.65" width="55.4229" height="11.3906" fill="black" stroke="black"/>
<rect x="154.733" y="688.041" width="11.5713" height="21.8354" fill="black" stroke="black"/>
<rect x="121.176" y="686.201" width="11.5713" height="23.6753" fill="black" stroke="black"/>
<rect x="165.28" y="709.053" width="11.5137" height="21.9194" fill="black" stroke="black"/>
<rect x="133.747" y="709.053" width="11.5137" height="21.9194" fill="black" stroke="black"/>
<rect x="175.777" y="729.999" width="13.4824" height="24.1108" fill="black" stroke="black"/>
<rect x="144.224" y="729.999" width="13.4824" height="24.1108" fill="black" stroke="black"/>
<rect x="188.291" y="752.918" width="11.5137" height="21.9194" fill="black" stroke="black"/>
<rect x="154.881" y="752.918" width="11.5137" height="21.9194" fill="black" stroke="black"/>
<rect x="165.28" y="785.412" width="11.5137" height="23.98" transform="rotate(-90 165.28 785.412)" fill="black" stroke="black"/>
<rect x="37.3086" y="474.109" width="4.85951" height="58.6472" transform="rotate(-13.5705 37.3086 474.109)" fill="#D9D9D9"/>
<rect x="61.6367" y="555.479" width="4.85951" height="58.6472" transform="rotate(-13.5705 61.6367 555.479)" fill="#D9D9D9"/>
<rect x="110.579" y="493.182" width="4.85951" height="58.6472" transform="rotate(46.4295 110.579 493.182)" fill="#D9D9D9"/>
<rect x="45.9941" y="548.334" width="4.85951" height="58.6472" transform="rotate(46.4295 45.9941 548.334)" fill="#D9D9D9"/>
<line x1="83.6475" y1="269.155" x2="83.6475" y2="84.5068" stroke="black" stroke-width="10"/>
<rect x="101.788" y="108.15" width="11.6406" height="11.4072" fill="black" stroke="black"/>
<rect x="89.1475" y="95.7441" width="11.6406" height="11.4072" fill="black" stroke="black"/>
<rect x="114.429" y="120.559" width="11.5654" height="11.4531" fill="black" stroke="black"/>
<rect x="126.923" y="133.012" width="11.5654" height="11.4531" fill="black" stroke="black"/>
<rect x="139.488" y="145.465" width="11.5654" height="11.4531" fill="black" stroke="black"/>
<rect x="152.054" y="157.918" width="11.5654" height="11.4531" fill="black" stroke="black"/>
<rect x="89.1475" y="249.483" width="11.5654" height="11.4531" fill="black" stroke="black"/>
<rect x="164.619" y="170.371" width="11.5654" height="11.4531" fill="black" stroke="black"/>
<rect x="107.923" y="225.57" width="11.5654" height="11.4531" fill="black" stroke="black"/>
<rect x="177.185" y="182.824" width="11.5654" height="11.4531" fill="black" stroke="black"/>
<rect x="98.5342" y="238.023" width="11.5654" height="11.4531" fill="black" stroke="black"/>
<rect x="189.75" y="195.277" width="11.5654" height="11.4531" fill="black" stroke="black"/>
<rect x="154.046" y="204.623" width="55.4229" height="11.3906" fill="black" stroke="black"/>
<rect x="154.046" y="217.014" width="11.5713" height="21.8354" fill="black" stroke="black"/>
<rect x="120.488" y="215.174" width="11.5713" height="23.6753" fill="black" stroke="black"/>
<rect x="164.593" y="238.023" width="11.5137" height="21.9194" fill="black" stroke="black"/>
<rect x="133.06" y="238.023" width="11.5137" height="21.9194" fill="black" stroke="black"/>
<rect x="175.09" y="258.971" width="13.4824" height="24.1108" fill="black" stroke="black"/>
<rect x="143.536" y="258.971" width="13.4824" height="24.1108" fill="black" stroke="black"/>
<rect x="187.604" y="281.891" width="11.5137" height="21.9194" fill="black" stroke="black"/>
<rect x="154.193" y="281.891" width="11.5137" height="21.9194" fill="black" stroke="black"/>
<rect x="164.593" y="314.384" width="11.5137" height="23.98" transform="rotate(-90 164.593 314.384)" fill="black" stroke="black"/>
<rect x="36.6211" y="3.08105" width="4.85951" height="58.6472" transform="rotate(-13.5705 36.6211 3.08105)" fill="#D9D9D9"/>
<rect x="60.9492" y="84.4512" width="4.85951" height="58.6472" transform="rotate(-13.5705 60.9492 84.4512)" fill="#D9D9D9"/>
<rect x="109.892" y="22.1533" width="4.85951" height="58.6472" transform="rotate(46.4295 109.892 22.1533)" fill="#D9D9D9"/>
<rect x="45.3066" y="77.3057" width="4.85951" height="58.6472" transform="rotate(46.4295 45.3066 77.3057)" fill="#D9D9D9"/>
</svg>
