<svg width="82" height="123" viewBox="0 0 82 123" fill="none" xmlns="http://www.w3.org/2000/svg">
<line x1="31.9355" y1="105.142" x2="31.9356" y2="33.1141" stroke="black" stroke-width="4"/>
<rect x="39.3662" y="42.6416" width="3.93085" height="3.8398" fill="black" stroke="black"/>
<rect x="34.4355" y="37.8027" width="3.93085" height="3.8398" fill="black" stroke="black"/>
<rect x="44.2969" y="47.4824" width="3.90152" height="3.85771" fill="black" stroke="black"/>
<rect x="49.1709" y="52.3398" width="3.90152" height="3.85771" fill="black" stroke="black"/>
<rect x="54.0723" y="57.1973" width="3.90152" height="3.85771" fill="black" stroke="black"/>
<rect x="58.9736" y="62.0557" width="3.90152" height="3.85771" fill="black" stroke="black"/>
<rect x="34.4355" y="97.7734" width="3.90152" height="3.85771" fill="black" stroke="black"/>
<rect x="63.876" y="66.9131" width="3.90152" height="3.85771" fill="black" stroke="black"/>
<rect x="41.7598" y="88.4453" width="3.90152" height="3.85771" fill="black" stroke="black"/>
<rect x="68.7773" y="71.7705" width="3.90152" height="3.85771" fill="black" stroke="black"/>
<rect x="38.0977" y="93.3027" width="3.90152" height="3.85771" fill="black" stroke="black"/>
<rect x="73.6787" y="76.6289" width="3.90152" height="3.85771" fill="black" stroke="black"/>
<rect x="59.751" y="80.2744" width="21.0094" height="3.83333" fill="black" stroke="black"/>
<rect x="59.751" y="85.1074" width="3.9038" height="7.90764" fill="black" stroke="black"/>
<rect x="46.6611" y="84.3896" width="3.9038" height="8.62532" fill="black" stroke="black"/>
<rect x="63.8652" y="93.3027" width="3.88133" height="7.9404" fill="black" stroke="black"/>
<rect x="51.5645" y="93.3027" width="3.88133" height="7.9404" fill="black" stroke="black"/>
<rect x="67.96" y="101.474" width="4.64929" height="8.79522" fill="black" stroke="black"/>
<rect x="55.6514" y="101.474" width="4.64929" height="8.79522" fill="black" stroke="black"/>
<rect x="72.8408" y="110.414" width="3.88133" height="7.9404" fill="black" stroke="black"/>
<rect x="59.8086" y="110.414" width="3.88133" height="7.9404" fill="black" stroke="black"/>
<rect x="63.8652" y="122.479" width="3.88133" height="8.74417" transform="rotate(-90 63.8652 122.479)" fill="black" stroke="black"/>
<rect x="13.6406" y="1.35156" width="1.8956" height="22.8771" transform="rotate(-13.5705 13.6406 1.35156)" fill="#D9D9D9"/>
<rect x="23.1309" y="33.0928" width="1.8956" height="22.8771" transform="rotate(-13.5705 23.1309 33.0928)" fill="#D9D9D9"/>
<rect x="42.2227" y="8.79102" width="1.8956" height="22.8771" transform="rotate(46.4295 42.2227 8.79102)" fill="#D9D9D9"/>
<rect x="17.0293" y="30.3047" width="1.8956" height="22.8771" transform="rotate(46.4295 17.0293 30.3047)" fill="#D9D9D9"/>
</svg>
