<svg width="996" height="594" viewBox="0 0 996 594" fill="none" xmlns="http://www.w3.org/2000/svg">
<path d="M2.95703 30.2539C2.95703 15.0661 15.2692 2.75391 30.457 2.75391H965.457C980.645 2.75391 992.957 15.0661 992.957 30.2539V590.754H2.95703V30.2539Z" fill="#0254E6"/>
<path d="M2.95703 30.2539C2.95703 15.0661 15.2692 2.75391 30.457 2.75391H965.457C980.645 2.75391 992.957 15.0661 992.957 30.2539V590.754H2.95703V30.2539Z" stroke="black" stroke-width="5"/>
<rect x="12.957" y="149.754" width="970" height="432" fill="white"/>
<rect x="12.957" y="149.754" width="970" height="432" stroke="black"/>
<mask id="path-3-inside-1_826_42" fill="white">
<rect x="358.457" y="425.254" width="250" height="89" rx="3"/>
</mask>
<rect x="358.457" y="425.254" width="250" height="89" rx="3" fill="#EDEDED"/>
<rect x="358.457" y="425.254" width="250" height="89" rx="3" stroke="black" stroke-opacity="0.54" stroke-width="10" mask="url(#path-3-inside-1_826_42)"/>
<path d="M478.648 488.254H449.848V449.854H478.648V488.254ZM469.048 483.454V454.654H459.448V483.454H469.048ZM512.257 488.254H502.657V478.654L495.457 469.054H493.057V488.254H483.457V449.854H493.057V464.254H495.457L502.657 459.454V449.854H512.257V459.454L507.457 464.254L502.657 466.654L507.457 469.054L512.257 476.254V488.254Z" fill="black"/>
<circle cx="165.816" cy="283.874" r="51.8433" fill="#EF0400" stroke="black" stroke-width="2"/>
<line x1="186.1" y1="264.644" x2="146.413" y2="304.714" stroke="white" stroke-width="5"/>
<line x1="146.413" y1="265.033" x2="186.1" y2="305.102" stroke="white" stroke-width="5"/>
<path d="M295.513 263.392V272.992H285.913V268.192H276.313V296.992H285.913V292.192H295.513V301.792H271.513L266.713 296.992V268.192L271.513 263.392H295.513ZM324.322 301.792H300.322V263.392H309.922V296.992H314.722L319.522 292.192H324.322V301.792ZM338.704 301.792H329.104V263.392H338.704V301.792ZM372.294 263.392V272.992H362.694V268.192H353.094V296.992H362.694V292.192H372.294V301.792H348.294L343.494 296.992V268.192L348.294 263.392H372.294ZM405.904 301.792H396.304V292.192L389.104 282.592H386.704V301.792H377.104V263.392H386.704V277.792H389.104L396.304 272.992V263.392H405.904V272.992L401.104 277.792L396.304 280.192L401.104 282.592L405.904 289.792V301.792ZM446.822 267.52C446.534 268.736 446.23 270.048 445.91 271.456C445.59 272.864 445.302 274.24 445.046 275.584C444.79 276.928 444.582 278.16 444.422 279.28H439.862L439.526 278.752C439.814 277.632 440.182 276.432 440.63 275.152C441.078 273.84 441.574 272.528 442.118 271.216C442.662 269.904 443.19 268.672 443.702 267.52H446.822ZM437.942 267.52C437.654 268.736 437.35 270.048 437.03 271.456C436.71 272.864 436.422 274.24 436.166 275.584C435.91 276.928 435.702 278.16 435.542 279.28H431.03L430.742 278.752C431.03 277.632 431.398 276.432 431.846 275.152C432.294 273.84 432.774 272.528 433.286 271.216C433.83 269.904 434.358 268.672 434.87 267.52H437.942ZM476.216 301.792H447.416V263.392H476.216V301.792ZM466.616 296.992V268.192H457.016V296.992H466.616ZM509.825 301.792H500.225V292.192L493.025 282.592H490.625V301.792H481.025V263.392H490.625V277.792H493.025L500.225 272.992V263.392H509.825V272.992L505.025 277.792L500.225 280.192L505.025 282.592L509.825 289.792V301.792ZM531.291 268.048C531.003 269.168 530.635 270.384 530.187 271.696C529.739 273.008 529.243 274.32 528.699 275.632C528.187 276.912 527.675 278.128 527.163 279.28H523.995C524.315 278.064 524.619 276.768 524.907 275.392C525.227 273.984 525.515 272.608 525.771 271.264C526.059 269.888 526.283 268.64 526.443 267.52H530.955L531.291 268.048ZM522.411 268.048C522.123 269.168 521.755 270.384 521.307 271.696C520.859 273.008 520.363 274.32 519.819 275.632C519.307 276.912 518.795 278.128 518.283 279.28H515.211C515.435 278.384 515.659 277.424 515.883 276.4C516.107 275.376 516.315 274.352 516.507 273.328C516.731 272.272 516.923 271.248 517.083 270.256C517.275 269.264 517.435 268.352 517.563 267.52H522.075L522.411 268.048ZM580.138 268.192H570.538V301.792H560.938V268.192H551.338V263.392H580.138V268.192ZM613.747 301.792H584.947V263.392H613.747V301.792ZM604.147 296.992V268.192H594.547V296.992H604.147ZM666.81 272.992H657.21V268.192H647.61V277.792H662.01V282.592H647.61V301.792H638.01V263.392H666.81V272.992ZM681.219 301.792H671.619V263.392H681.219V301.792ZM719.61 301.792H710.01V294.592L702.81 287.392L695.61 294.592V301.792H686.01V292.192H688.41L695.61 284.992V280.192L688.41 272.992H686.01V263.392H695.61V270.592L702.81 277.792L710.01 270.592V263.392H719.61V272.992H717.21L710.01 280.192V284.992L717.21 292.192H719.61V301.792ZM772.654 301.792H743.854V263.392H772.654V272.992H767.854V268.192H753.454V277.792H767.854V282.592H753.454V296.992H763.054V292.192H772.654V301.792ZM806.263 301.792H796.663V296.992L791.863 289.792V287.392H787.063V301.792H777.463V263.392H801.463L806.263 268.192V282.592L801.463 284.992V287.392L806.263 294.592V301.792ZM796.663 282.592V268.192H787.063V282.592H796.663ZM839.872 301.792H830.272V296.992L825.472 289.792V287.392H820.672V301.792H811.072V263.392H835.072L839.872 268.192V282.592L835.072 284.992V287.392L839.872 294.592V301.792ZM830.272 282.592V268.192H820.672V282.592H830.272ZM873.482 301.792H844.682V263.392H873.482V301.792ZM863.882 296.992V268.192H854.282V296.992H863.882ZM907.091 301.792H897.491V296.992L892.691 289.792V287.392H887.891V301.792H878.291V263.392H902.291L907.091 268.192V282.592L902.291 284.992V287.392L907.091 294.592V301.792ZM897.491 282.592V268.192H887.891V282.592H897.491Z" fill="black"/>
<path d="M65.007 100.913H36.207V62.5131H65.007V72.1131H60.207V67.3131H45.807V76.9131H60.207V81.7131H45.807V96.1131H55.407V91.3131H65.007V100.913ZM98.6164 100.913H89.0164V96.1131L84.2164 88.9131V86.5131H79.4164V100.913H69.8164V62.5131H93.8164L98.6164 67.3131V81.7131L93.8164 84.1131V86.5131L98.6164 93.7131V100.913ZM89.0164 81.7131V67.3131H79.4164V81.7131H89.0164ZM132.226 100.913H122.626V96.1131L117.826 88.9131V86.5131H113.026V100.913H103.426V62.5131H127.426L132.226 67.3131V81.7131L127.426 84.1131V86.5131L132.226 93.7131V100.913ZM122.626 81.7131V67.3131H113.026V81.7131H122.626ZM165.835 100.913H137.035V62.5131H165.835V100.913ZM156.235 96.1131V67.3131H146.635V96.1131H156.235ZM199.445 100.913H189.845V96.1131L185.045 88.9131V86.5131H180.245V100.913H170.645V62.5131H194.645L199.445 67.3131V81.7131L194.645 84.1131V86.5131L199.445 93.7131V100.913ZM189.845 81.7131V67.3131H180.245V81.7131H189.845ZM257.307 100.913H247.707L233.307 72.1131V100.913H223.707V62.5131H233.307L247.707 91.3131V62.5131H257.307V100.913ZM290.898 100.913H262.098V62.5131H290.898V72.1131H286.098V67.3131H271.698V76.9131H286.098V81.7131H271.698V96.1131H281.298V91.3131H290.898V100.913ZM324.507 100.913H295.707V62.5131H324.507V72.1131H319.707V67.3131H305.307V76.9131H319.707V81.7131H305.307V96.1131H314.907V91.3131H324.507V100.913ZM358.116 96.1131L353.316 100.913H329.316V62.5131L353.364 62.5611L358.116 67.3131V96.1131ZM348.516 96.1131V67.3131H338.916V96.1131H348.516ZM420.779 100.913H411.179V76.9131H408.779L401.579 86.5131L394.379 76.9131H391.979V100.913H382.379V62.5131H391.979L401.579 76.9131L411.179 62.5131H420.779V100.913ZM454.398 100.913H425.598V62.5131H454.398V100.913ZM444.798 96.1131V67.3131H435.198V96.1131H444.798ZM488.007 100.913H478.407V96.1131L473.607 88.9131V86.5131H468.807V100.913H459.207V62.5131H483.207L488.007 67.3131V81.7131L483.207 84.1131V86.5131L488.007 93.7131V100.913ZM478.407 81.7131V67.3131H468.807V81.7131H478.407ZM521.616 100.913H492.816V62.5131H521.616V72.1131H516.816V67.3131H502.416V76.9131H516.816V81.7131H502.416V96.1131H512.016V91.3131H521.616V100.913ZM574.679 96.1131L569.879 100.913H545.879V62.5131L569.927 62.5611L574.679 67.3131V96.1131ZM565.079 96.1131V67.3131H555.479V96.1131H565.079ZM608.288 100.913H598.688V96.1131L593.888 88.9131V86.5131H589.088V100.913H579.488V62.5131H603.488L608.288 67.3131V81.7131L603.488 84.1131V86.5131L608.288 93.7131V100.913ZM598.688 81.7131V67.3131H589.088V81.7131H598.688ZM641.898 100.913H613.098V62.5131H641.898V72.1131H637.098V67.3131H622.698V76.9131H637.098V81.7131H622.698V96.1131H632.298V91.3131H641.898V100.913ZM675.507 100.913H665.907V86.5131H656.307V100.913H646.707V67.3131L651.507 62.5131H675.507V100.913ZM665.907 81.7131V67.3131H656.307V81.7131H665.907ZM718.716 100.913H709.116V76.9131H706.716L699.516 86.5131L692.316 76.9131H689.916V100.913H680.316V62.5131H689.916L699.516 76.9131L709.116 62.5131H718.716V100.913ZM752.335 81.7131L747.535 86.5131H733.135V100.913H723.535V62.5131H747.535L752.335 67.3131V81.7131ZM742.735 81.7131V67.3131H733.135V81.7131H742.735ZM766.745 100.913H757.145V62.5131H766.745V100.913ZM795.535 100.913H771.535V62.5131H781.135V96.1131H785.935L790.735 91.3131H795.535V100.913ZM824.316 100.913H800.316V62.5131H809.916V96.1131H814.716L819.516 91.3131H824.316V100.913ZM857.898 96.1131L853.098 100.913H829.098V91.3131H838.698V96.1131H848.298V81.7131H829.098V67.3131L833.898 62.5131H857.898V72.1131H848.298V67.3131H838.698V76.9131H853.098L857.898 81.7131V96.1131Z" fill="#E3FFFF"/>
</svg>
